HIERARCHY
ROOT Hips
{
	OFFSET 37.628601 -2.093276 98.784401
	CHANNELS 6 Xposition Yposition Zposition Xrotation Yrotation Zrotation
	JOINT spine
	{
		OFFSET 0.000000 -0.477352 8.301041
		CHANNELS 3 Xrotation Yrotation Zrotation
		JOINT spine1
		{
			OFFSET 0.000000 -0.000002 10.456497
			CHANNELS 3 Xrotation Yrotation Zrotation
			JOINT spine2
			{
				OFFSET 0.000000 -0.000002 10.019203
				CHANNELS 3 Xrotation Yrotation Zrotation
				JOINT Neck
				{
					OFFSET 0.000000 -1.226414 25.723495
					CHANNELS 3 Xrotation Yrotation Zrotation
					JOINT Head
					{
						OFFSET 0.000000 -0.000001 7.771744
						CHANNELS 3 Xrotation Yrotation Zrotation
						End Site
						{
							OFFSET 0.000000 6.203937 18.811996
						}
					}
				}
				JOINT RightShoulder
				{
					OFFSET -4.218800 0.587437 10.819992
					CHANNELS 3 Xrotation Yrotation Zrotation
					JOINT RightArm
					{
						OFFSET 0.000000 -0.000002 14.191406
						CHANNELS 3 Xrotation Yrotation Zrotation
						JOINT RightArmRoll
						{
							OFFSET 0.000000 -0.000001 7.164093
							CHANNELS 3 Xrotation Yrotation Zrotation
							JOINT RightForeArm
							{
								OFFSET 0.000000 -0.000003 20.866501
								CHANNELS 3 Xrotation Yrotation Zrotation
								JOINT RightForeArmRoll
								{
									OFFSET 0.000000 -0.000001 8.039215
									CHANNELS 3 Xrotation Yrotation Zrotation
									JOINT RightHand
									{
										OFFSET 0.000000 -0.000003 16.132996
										CHANNELS 3 Xrotation Yrotation Zrotation
										End Site
										{
											OFFSET 0.000000 0.000000 0.100006
										}
									}
								}
							}
						}
					}
				}
				JOINT LeftShoulder
				{
					OFFSET 4.218800 0.587437 10.819992
					CHANNELS 3 Xrotation Yrotation Zrotation
					JOINT LeftArm
					{
						OFFSET 0.000000 -0.000002 14.191406
						CHANNELS 3 Xrotation Yrotation Zrotation
						JOINT LeftArmRoll
						{
							OFFSET 0.000000 -0.000001 7.164078
							CHANNELS 3 Xrotation Yrotation Zrotation
							JOINT LeftForeArm
							{
								OFFSET 0.000000 -0.000003 20.866501
								CHANNELS 3 Xrotation Yrotation Zrotation
								JOINT LeftForeArmRoll
								{
									OFFSET 0.000000 -0.000001 8.039215
									CHANNELS 3 Xrotation Yrotation Zrotation
									JOINT LeftHand
									{
										OFFSET 0.000000 -0.000003 16.132996
										CHANNELS 3 Xrotation Yrotation Zrotation
										End Site
										{
											OFFSET 0.000000 0.000000 0.100006
										}
									}
								}
							}
						}
					}
				}
			}
		}
	}
	JOINT RightUpLeg
	{
		OFFSET -7.357731 1.131820 -1.349213
		CHANNELS 3 Xrotation Yrotation Zrotation
		JOINT RightUpLegRoll
		{
			OFFSET 0.000000 -0.000003 18.916801
			CHANNELS 3 Xrotation Yrotation Zrotation
			JOINT RightLeg
			{
				OFFSET 0.000000 0.000004 -23.425598
				CHANNELS 3 Xrotation Yrotation Zrotation
				JOINT RightLegRoll
				{
					OFFSET 0.000000 -0.000004 23.502304
					CHANNELS 3 Xrotation Yrotation Zrotation
					JOINT RightFoot
					{
						OFFSET 0.000000 -0.000003 19.561707
						CHANNELS 3 Xrotation Yrotation Zrotation
						JOINT RightToeBase
						{
							OFFSET 0.000000 -0.000003 16.352600
							CHANNELS 3 Xrotation Yrotation Zrotation
							End Site
							{
								OFFSET 0.006931 0.912836 7.919434
							}
						}
					}
				}
			}
		}
	}
	JOINT LeftUpLeg
	{
		OFFSET 7.357731 1.131820 -1.349213
		CHANNELS 3 Xrotation Yrotation Zrotation
		JOINT LeftUpLegRoll
		{
			OFFSET 0.000000 -0.000003 18.916901
			CHANNELS 3 Xrotation Yrotation Zrotation
			JOINT LeftLeg
			{
				OFFSET 0.000000 -0.000004 23.425499
				CHANNELS 3 Xrotation Yrotation Zrotation
				JOINT LeftLegRoll
				{
					OFFSET 0.000000 -0.000004 23.719498
					CHANNELS 3 Xrotation Yrotation Zrotation
					JOINT LeftFoot
					{
						OFFSET 0.000000 -0.000003 19.344406
						CHANNELS 3 Xrotation Yrotation Zrotation
						JOINT LeftToeBase
						{
							OFFSET 0.000000 -0.000003 16.352600
							CHANNELS 3 Xrotation Yrotation Zrotation
							End Site
							{
								OFFSET -0.031063 0.912836 7.919434
							}
						}
					}
				}
			}
		}
	}
}
MOTION
Frames: 6
Frame Time: 0.041667
37.499405 -1.445435 98.829704 -4.787230 -0.305410 -0.446469 -1.206060 -0.029387 0.086293 1.577761 -0.058979 0.160565 3.222831 -0.057074 0.162493 23.512472 0.214359 -0.107325 -6.787022 1.443249 -0.158189 -4.400306 -71.703039 -6.354176 -61.082177 -131.260813 -95.354044 -0.000003 -0.000023 -0.000000 93.098409 -4.783053 -3.934555 -0.000007 0.000017 -3.000821 -5.000220 -7.998756 0.000173 4.768704 63.745862 -4.822754 -61.033553 131.275102 79.672654 -0.000002 -0.000003 -0.000006 88.078670 1.332058 3.775545 0.000000 -0.000018 3.001360 -5.000198 7.999279 -0.000095 0.917686 -176.210493 1.407016 179.999991 -0.000005 -1.105994 173.856031 -4.197832 -0.718465 -0.000005 -0.000002 0.070435 68.155917 6.897921 2.174034 25.456955 -7.355616 0.000011 1.384991 175.003448 -0.294898 -0.000005 -0.000005 -1.206170 -10.921794 3.814732 1.100606 -0.000002 0.000001 -0.154917 69.152913 -6.909821 -2.064216 25.456957 7.355614 -0.000001 
37.498703 -1.443528 98.826210 -4.790436 -0.304492 -0.449979 -1.205828 -0.029429 0.086483 1.578521 -0.059129 0.160371 3.223581 -0.057232 0.162429 23.504762 0.207542 -0.107740 -6.772688 1.456271 -0.159670 -4.387593 -71.705641 -6.340411 -60.939972 -131.290470 -95.589385 -0.000000 -0.000019 0.000001 92.777192 -4.905096 -3.706027 0.000002 0.000012 -3.000818 -5.000218 -7.998755 0.000174 4.808341 63.753361 -4.866724 -60.948954 131.302628 79.976003 -0.000002 -0.000002 -0.000007 88.094953 1.327442 3.789073 -0.000002 -0.000016 3.001360 -5.000198 7.999283 -0.000094 0.919081 -176.211477 1.407981 179.999991 -0.000005 -1.105994 173.854952 -4.199820 -0.718757 -0.000004 -0.000002 0.070536 68.155411 6.897989 2.174079 25.456962 -7.355615 0.000011 1.386520 175.001468 -0.297254 -0.000004 -0.000005 -1.206190 -10.924509 3.815149 1.101247 -0.000001 0.000001 -0.154903 69.152776 -6.909742 -2.064309 25.456959 7.355614 -0.000000 
37.495304 -1.441393 98.825401 -4.793755 -0.303357 -0.454110 -1.205661 -0.029462 0.086675 1.579431 -0.059159 0.160149 3.224491 -0.057272 0.162353 23.495747 0.197585 -0.106929 -6.756718 1.473629 -0.160295 -4.375516 -71.708531 -6.327356 -60.798861 -131.330823 -95.830211 -0.000002 -0.000021 -0.000000 92.439172 -5.034030 -3.460761 -0.000002 0.000013 -3.000820 -5.000219 -7.998752 0.000173 4.848242 63.760547 -4.911045 -60.873071 131.335139 80.287590 -0.000005 -0.000004 -0.000002 88.108873 1.324307 3.800959 -0.000005 -0.000013 3.001352 -5.000194 7.999281 -0.000094 0.920341 -176.212474 1.409659 179.999991 -0.000005 -1.105994 173.853682 -4.201793 -0.718067 -0.000004 -0.000002 0.070663 68.154886 6.897986 2.174410 25.456957 -7.355617 0.000010 1.387578 174.999446 -0.299711 -0.000005 -0.000004 -1.206210 -10.928522 3.815549 1.102018 -0.000003 0.000001 -0.154886 69.153282 -6.909664 -2.064364 25.456957 7.355613 -0.000000 
37.489304 -1.438877 98.831100 -4.797168 -0.302016 -0.458820 -1.205520 -0.029497 0.086867 1.580511 -0.059104 0.159905 3.225572 -0.057228 0.162265 23.485629 0.185117 -0.105056 -6.739352 1.494437 -0.160157 -4.363550 -71.711911 -6.314470 -60.660235 -131.380246 -96.075244 -0.000001 -0.000023 -0.000003 92.088422 -5.169403 -3.202715 0.000002 0.000015 -3.000809 -5.000216 -7.998757 0.000173 4.888459 63.767609 -4.955750 -60.805602 131.371012 80.604866 -0.000004 -0.000001 -0.000005 88.120560 1.322330 3.811088 -0.000004 -0.000017 3.001349 -5.000198 7.999278 -0.000094 0.921483 -176.212488 1.411815 179.999991 -0.000005 -1.105994 173.852206 -4.205760 -0.718603 -0.000004 -0.000002 0.070810 68.154360 6.898018 2.174549 25.456957 -7.355616 0.000012 1.388185 174.997465 -0.302285 -0.000004 -0.000005 -1.206230 -10.933839 3.815972 1.102911 -0.000002 0.000001 -0.154869 69.154211 -6.909605 -2.064494 25.456955 7.355613 -0.000000 
37.490704 -1.438004 98.829597 -4.800677 -0.300479 -0.464060 -1.205378 -0.029543 0.087060 1.581790 -0.058996 0.159645 3.226851 -0.057131 0.162170 23.474411 0.170763 -0.102282 -6.720867 1.517823 -0.159348 -4.351110 -71.715893 -6.301108 -60.523467 -131.438098 -96.320468 -0.000002 -0.000019 0.000002 91.728928 -5.310675 -2.935809 -0.000001 0.000013 -3.000811 -5.000218 -7.998751 0.000175 4.928957 63.774439 -5.000783 -60.743700 131.410394 80.921704 -0.000002 -0.000001 -0.000004 88.130006 1.321327 3.819768 -0.000004 -0.000014 3.001349 -5.000193 7.999279 -0.000094 0.922509 -176.213498 1.414126 179.999991 -0.000005 -1.105994 173.850567 -4.209727 -0.719151 -0.000004 -0.000002 0.070969 68.153738 6.898040 2.174793 25.456960 -7.355617 0.000012 1.388354 174.994460 -0.305016 -0.000005 -0.000004 -1.206250 -10.940260 3.816409 1.103898 -0.000002 0.000001 -0.154851 69.155672 -6.909543 -2.064493 25.456955 7.355613 -0.000001 
37.488804 -1.436859 98.824203 -4.804287 -0.298756 -0.469789 -1.205219 -0.029607 0.087252 1.583279 -0.058868 0.159376 3.228341 -0.057016 0.162070 23.462192 0.155153 -0.098769 -6.701527 1.542911 -0.157958 -4.337676 -71.720709 -6.286727 -60.388947 -131.503230 -96.563104 0.000002 -0.000023 -0.000002 91.364818 -5.457263 -2.663954 -0.000002 0.000012 -3.000811 -5.000220 -7.998753 0.000172 4.969825 63.781461 -5.046219 -60.686456 131.452455 81.234438 0.000000 -0.000001 -0.000004 88.137273 1.321042 3.826975 -0.000001 -0.000012 3.001341 -5.000193 7.999281 -0.000094 0.923423 -176.214496 1.416351 179.999991 -0.000005 -1.105994 173.848750 -4.213693 -0.719711 -0.000005 -0.000002 0.071133 68.153014 6.898055 2.175141 25.456953 -7.355618 0.000010 1.388096 174.991468 -0.307896 -0.000004 -0.000005 -1.206270 -10.947782 3.816892 1.104969 -0.000003 0.000001 -0.154833 69.157434 -6.909456 -2.064666 25.456955 7.355613 -0.000001 
